<svg xmlns="http://www.w3.org/2000/svg" viewBox="0 0 634.7 634.7"><defs><style>.cls-1{fill:#35444c;}</style></defs><title>Asset 5</title><g id="Layer_2" data-name="Layer 2"><g id="Layer_1-2" data-name="Layer 1"><path class="cls-1" d="M88.83,259.3q-9.14,4.9-21.47.91-13-4.2-17.65-13.36t-.27-22.76a47.65,47.65,0,0,1,3.32-7.94,51.47,51.47,0,0,1,4.33-6.72l11.22,3.63a39.59,39.59,0,0,0-7.58,13.63q-2.58,8,0,12.89t10.81,7.59q7.73,2.51,12.67-.16t7.47-10.46a39.58,39.58,0,0,0,1.91-15.37l11.29,3.65a50.24,50.24,0,0,1-2.64,16.29Q98,254.4,88.83,259.3Z"/><path class="cls-1" d="M69.59,179.27l14.85-22.46q5.11-7.74,11.76-8.92t13.89,3.63a16.77,16.77,0,0,1,6.45,7.52,16.28,16.28,0,0,1,.92,9.68,9.33,9.33,0,0,1,2.67-.39,22.15,22.15,0,0,1,3.55.39l15.64,2.72-7.75,11.72-14.76-2.54a5.38,5.38,0,0,0-3.22.17,6.24,6.24,0,0,0-2.47,2.38l-3.42,5.16,14.23,9.41L114.51,209Zm35-5a8.76,8.76,0,0,0,1.74-6.27,7.64,7.64,0,0,0-3.75-5.08q-6.77-4.49-11,2l-5.82,8.79,13.4,8.85Z"/><path class="cls-1" d="M148.11,134.7l-37-12.78,10.54-9.28,23.79,8.8-5.71-24.71,10.55-9.28,8,38.31,13.09,14.87-10.17,9Z"/><path class="cls-1" d="M176.46,71l23.91-11.44q8.37-4,15-1.3t10.35,10.49a20.09,20.09,0,0,1,2.11,9.83,16.46,16.46,0,0,1-3.21,8.9A20.88,20.88,0,0,1,216.49,94L205,99.52l6.82,14.26-12.14,5.81ZM209.3,86c2.51-1.21,4.09-2.81,4.74-4.82a8.74,8.74,0,0,0-.73-6.56c-1.23-2.56-2.77-4.24-4.63-5s-4-.58-6.48.6l-9.12,4.37,7.47,15.61Z"/><path class="cls-1" d="M258.69,50.84l-15.5,3.06-2-10.17L285.39,35l2,10.17-15.5,3.07,8.43,42.65-13.21,2.61Z"/><path class="cls-1" d="M313.38,81.11Q307.07,73.9,308,60q1-14.59,8.08-20.83t20.55-5.35q13.35.89,19.62,8t5.31,21.72q-.92,13.93-8.13,20.25T333,89.19Q319.69,88.31,313.38,81.11Zm30.47-6.58q3.39-3.66,3.93-11.93.6-8.93-2.24-12.88t-9.68-4.41q-6.93-.47-10.26,3.09t-3.93,12.47q-.54,8.26,2.33,12.35t9.71,4.54Q340.46,78.21,343.85,74.53Z"/><path class="cls-1" d="M396,44.12l25.24,9.37q8.7,3.23,11.35,9.43t-.38,14.35a16.8,16.8,0,0,1-5.86,8,16.31,16.31,0,0,1-9.22,3.09,9.11,9.11,0,0,1,1,2.51,23.18,23.18,0,0,1,.42,3.54l.9,15.85-13.17-4.88-.87-15a5.46,5.46,0,0,0-.9-3.1,6.21,6.21,0,0,0-2.88-1.87l-5.8-2.15-5.93,16-12.62-4.68ZM408.74,77a8.8,8.8,0,0,0,6.5.27,7.66,7.66,0,0,0,4.11-4.81q2.82-7.6-4.47-10.31L405,58.53l-5.58,15Z"/><path class="cls-1" d="M479.85,84.68l11.74,8.6-15.23,55.59L465,140.57l3.31-12.72-14.5-10.62-11.06,7L431.44,116Zm-7.13,34.06L478,99.38l-16.8,10.91Z"/><path class="cls-1" d="M531.86,129.92l13.88,18.75q7.5,10.16,6.08,19.05t-13,17.46q-11,8.1-19.92,6.88t-16.47-11.37l-13.88-18.75Zm-22.17,43.13a17.64,17.64,0,0,0,5.55,5.25,8.88,8.88,0,0,0,6.48.61q3.72-.87,9-4.75a30,30,0,0,0,7.42-7.2,9.22,9.22,0,0,0,1.6-6.49,16.89,16.89,0,0,0-3.39-7.11l-4.78-6.46-26.62,19.7Z"/><path class="cls-1" d="M533.18,219.68q4.1-8.66,17.26-13.34,13.77-4.92,22.33-.86t13.06,16.73q4.5,12.6.45,21.19t-17.82,13.5q-13.15,4.68-21.81.58t-13.11-16.63Q529.07,228.34,533.18,219.68ZM551.32,245q4.71,1.65,12.51-1.13,8.43-3,10.93-7.18t.2-10.63q-2.33-6.54-6.91-8.19t-13,1.35q-7.8,2.79-10.41,7t-.3,10.72Q546.6,243.39,551.32,245Z"/><path class="cls-1" d="M83.68,400.92l4.4,11.42a7.63,7.63,0,0,1,.36,5.49,6.05,6.05,0,0,1-3.74,3.37,6.4,6.4,0,0,1-3.09.45,4.71,4.71,0,0,1-2.5-1,5.29,5.29,0,0,1-.75,3,5.48,5.48,0,0,1-2.74,2,6.43,6.43,0,0,1-5.42,0A8.11,8.11,0,0,1,66.57,421L62,409.25ZM69.89,418.11a3.63,3.63,0,0,0,1.47,2,2.94,2.94,0,0,0,2.41-.12,2.46,2.46,0,0,0,1.6-1.45,4,4,0,0,0-.32-2.63l-1.82-4.74-5.24,2Zm8.76-4q1,2.69,3.46,1.75a2.59,2.59,0,0,0,1.62-1.39,3.63,3.63,0,0,0-.28-2.52l-1.59-4.13L77,409.71Z"/><path class="cls-1" d="M94.21,426.22l2.69,5.13L80.31,440l5.07,9.7-4,2.07L73.67,437Z"/><path class="cls-1" d="M88.16,458.19q.84-4,5.87-7.33,5.27-3.47,9.26-2.63t7.16,5.68q3.17,4.81,2.34,8.82t-6.09,7.46q-5,3.29-9.06,2.45T90.46,467Q87.33,462.23,88.16,458.19ZM98.32,467q2.15.21,5.12-1.74,3.23-2.12,3.85-4.12a5.22,5.22,0,0,0-1-4.47,5.32,5.32,0,0,0-3.73-2.72c-1.39-.15-3.15.48-5.3,1.88q-3,2-3.64,4a5.21,5.21,0,0,0,1,4.52A5.13,5.13,0,0,0,98.32,467Z"/><path class="cls-1" d="M106.37,484q.33-4.46,4.63-8,4.53-3.74,8.94-3.31t8.33,5.16a21,21,0,0,1,2.11,3,23.45,23.45,0,0,1,1.44,3.13l-3.91,3.23a17.14,17.14,0,0,0-3.2-5.9q-2.29-2.77-4.69-3t-5.26,2.17c-1.79,1.49-2.75,3-2.87,4.64a7.34,7.34,0,0,0,2.07,5.13,17,17,0,0,0,5.15,4.25l-4,3.26a21.75,21.75,0,0,1-5.3-4.73Q106,488.44,106.37,484Z"/><path class="cls-1" d="M137.58,489l4.17,4-6.26,6.47,12-.91,4.76,4.61-12.54,1-3.23,16L132,515.94l2.52-11.5-4.05.25-4.88,5-4.17-4Z"/><path class="cls-1" d="M145.93,524.59q-.62-4.43,2.84-8.8c2.43-3.07,5.1-4.78,8-5.13s6,.76,9.23,3.3a20.74,20.74,0,0,1,2.7,2.52,22.83,22.83,0,0,1,2.07,2.76l-3.14,4a17,17,0,0,0-4.37-5.09c-1.89-1.49-3.62-2.13-5.21-1.92s-3.15,1.29-4.68,3.23-2.06,3.54-1.83,5.14a7.33,7.33,0,0,0,3.1,4.58,17,17,0,0,0,5.92,3.07l-3.16,4a21.71,21.71,0,0,1-6.18-3.51Q146.54,529,145.93,524.59Z"/><path class="cls-1" d="M177.49,523l4.92,3.06-4.86,7.79,7.7,4.8,4.86-7.79L195,533.9l-12.27,19.67-4.92-3.07,4.86-7.79-7.7-4.79-4.86,7.79-4.91-3.07Z"/><path class="cls-1" d="M209.57,541.31l5.67,2.66-1.82,24.75L208,566.16l.34-5.65-7-3.28-4.09,3.89-5.48-2.57Zm-.18,15,.62-8.62-6.2,6Z"/><path class="cls-1" d="M230.51,550.29l5.44,2L228,574.06l-5.45-2Z"/><path class="cls-1" d="M243.9,555.11l4.8,1.29,5.94,15.94L258.23,559l5.63,1.51-6,22.39L253,581.56l-5.95-15.91L243.5,579l-5.59-1.5Z"/><path class="cls-1" d="M289.44,564.6l5.76.6-2.41,23.06-5.77-.6Z"/><path class="cls-1" d="M303.58,566l5,.08,9.63,14,.23-13.86,5.83.1-.39,23.18-5-.09-9.63-14L309,589.32l-5.79-.1Z"/><path class="cls-1" d="M332.45,566.05l4.94-.5,11.2,12.81-1.38-13.8L353,564l2.32,23.07-5,.5-11.2-12.77,1.38,13.76-5.76.57Z"/><path class="cls-1" d="M367.71,582.37q-3.48-2.21-4.78-8.08c-.92-4.1-.64-7.29.81-9.59s4.08-3.85,7.85-4.69,6.77-.52,9.08.93,3.9,4.24,4.82,8.33q1.31,5.88-.91,9.35t-7.8,4.72Q371.19,584.58,367.71,582.37Zm11.8-6.4c.63-1.28.69-3.09.18-5.41-.56-2.5-1.39-4.19-2.49-5a6.53,6.53,0,0,0-8.4,1.87c-.63,1.25-.67,3.12-.11,5.63q.76,3.48,2.45,4.82a6.32,6.32,0,0,0,8.37-1.86Z"/><path class="cls-1" d="M387.28,556.65l5.71-2,11,13.74.24-17.59,5.75-2-.84,24.8-5.92,2Z"/><path class="cls-1" d="M420.78,544l5.67-2.66,17.85,17.25-5.48,2.56-4.12-3.87-7,3.28.36,5.63-5.47,2.56Zm11.39,9.73-6.22-6,.65,8.6Z"/><path class="cls-1" d="M444.08,537.07l-5.86,3.44L436,536.66l16.73-9.83,2.26,3.85-5.86,3.45,9.48,16.14-5,2.93Z"/><path class="cls-1" d="M458.47,522.8l4.74-3.33,13.3,19-4.75,3.32Z"/><path class="cls-1" d="M485.07,529q-4.11-.35-8-5-4.06-4.81-3.72-8.87t4.78-7.79q4.41-3.72,8.48-3.38t8.13,5.15q3.87,4.59,3.52,8.7t-4.72,7.8Q489.18,529.33,485.07,529Zm7.49-11.14q0-2.15-2.34-4.88c-1.66-2-3.17-3.06-4.55-3.32a6.52,6.52,0,0,0-6.58,5.55q0,2.1,2.51,5,2.29,2.73,4.41,3.13a6.31,6.31,0,0,0,6.55-5.52Z"/><path class="cls-1" d="M492.58,495l3.39-3.63,16.87,2.26-10.13-9.46,4-4.26,16.94,15.82-3.42,3.66-16.83-2.23,10.1,9.44-4,4.23Z"/><path class="cls-1" d="M522.4,459.56l3.1-4.89,7.76,4.91,4.85-7.66L530.36,447l3.1-4.9L553,454.52l-3.1,4.9-7.75-4.92-4.86,7.67,7.75,4.91L542,472Z"/><path class="cls-1" d="M557.68,441.68a8.35,8.35,0,0,1-7.36-.36l-12.94-6.23,2.52-5.23,12.45,6a4.79,4.79,0,0,0,3.79.45,6.12,6.12,0,0,0,3.14-6.52,4.81,4.81,0,0,0-2.71-2.69l-12.45-6,2.51-5.23,12.94,6.24a8.34,8.34,0,0,1,4.87,5.52,11.75,11.75,0,0,1-1.22,8.06C561.79,438.66,560,440.66,557.68,441.68Z"/><path class="cls-1" d="M549.65,408.43l4-11.55a7.57,7.57,0,0,1,3.28-4.43,6.05,6.05,0,0,1,5-.15,6.35,6.35,0,0,1,2.65,1.65,4.84,4.84,0,0,1,1.23,2.41,5.26,5.26,0,0,1,2.52-1.81,5.45,5.45,0,0,1,3.36.27,6.47,6.47,0,0,1,4.13,3.5,8,8,0,0,1-.19,5.85l-4.14,11.9ZM562,401.61q.94-2.72-1.5-3.57a2.59,2.59,0,0,0-2.14,0,3.75,3.75,0,0,0-1.42,2.1l-1.45,4.18,5,1.73Zm9.27,2.62a3.57,3.57,0,0,0,.15-2.46,2.94,2.94,0,0,0-1.91-1.47,2.47,2.47,0,0,0-2.16.07,4,4,0,0,0-1.46,2.22l-1.67,4.79,5.3,1.85Z"/><path class="cls-1" d="M317.36,522c-1.5-.05-3-.08-4.5-.1-3.18-.06-6.18-.11-9.19-.39h-.13a27.85,27.85,0,0,1-20.08-10,21.06,21.06,0,0,1-4.66-11.4l-.25-2.76-2.71-.62c-4-.93-8.14-2-12.17-3.24l-2.64-.8-1.6,2.26a21.37,21.37,0,0,1-9.71,7.54,24.57,24.57,0,0,1-9.29,1.74,30.35,30.35,0,0,1-13.18-3.12c-4-2-8.14-4.12-12.12-6.5l-.12-.07c-3-1.65-5.86-3.49-8.87-5.44l-2.82-1.81c-6.77-4.68-11.37-11.67-12.33-18.71a21.28,21.28,0,0,1,1.68-12.23l1.16-2.51-2-1.89c-3-2.83-6-5.83-8.91-8.92L181,441l-2.51,1.16a21,21,0,0,1-8.85,1.94,21.7,21.7,0,0,1-3.31-.25c-7.11-1-14.11-5.58-18.78-12.34l-1.83-2.85c-1.95-3-3.78-5.85-5.43-8.85l-.07-.12c-2.34-3.91-4.47-8.11-6.52-12.17-3.55-7.29-4.07-15.68-1.37-22.38a21.5,21.5,0,0,1,7.58-9.76l2.26-1.6-.8-2.64c-1.22-4-2.31-8.09-3.24-12.15l-.62-2.71-2.76-.25a21.15,21.15,0,0,1-11.4-4.63,27.91,27.91,0,0,1-10-20.11v-.13c-.27-3-.33-6-.38-9.19,0-1.5-.06-3-.11-4.5s.08-3,.1-4.49c.06-3.18.11-6.18.39-9.19v-.14a27.83,27.83,0,0,1,10-20.07,21.06,21.06,0,0,1,11.4-4.66l2.76-.26.62-2.7c.93-4.07,2-8.16,3.24-12.17l.8-2.65-2.26-1.59a21.34,21.34,0,0,1-7.54-9.72c-2.72-6.73-2.19-15.12,1.38-22.46,2-4,4.11-8.13,6.5-12.12l.07-.12c1.66-3,3.51-5.89,5.47-8.92l1.79-2.77c4.67-6.77,11.66-11.38,18.71-12.33a20.84,20.84,0,0,1,3.37-.27,21.09,21.09,0,0,1,8.86,1.94l2.51,1.16,1.89-2c2.84-3,5.84-6,8.91-8.9l2-1.89-1.16-2.51A21.27,21.27,0,0,1,191,166.4c1-7.11,5.58-14.11,12.35-18.78l2.84-1.83c3-1.94,5.85-3.78,8.85-5.43l.12-.07c4-2.37,8.13-4.48,12.17-6.53a30.25,30.25,0,0,1,13.12-3.09,24.89,24.89,0,0,1,9.26,1.73,21.43,21.43,0,0,1,9.76,7.58l1.59,2.26,2.65-.81c4-1.21,8.09-2.3,12.16-3.23l2.7-.63.25-2.76a21.15,21.15,0,0,1,4.63-11.39,27.88,27.88,0,0,1,20.11-10h.13c3-.28,6-.33,9.1-.39,1.53,0,3.06-.06,4.58-.11s3,.08,4.5.1c3.18.06,6.18.11,9.19.4h.13a27.8,27.8,0,0,1,20.08,10,21.21,21.21,0,0,1,4.66,11.4l.26,2.76,2.69.62c4.07.93,8.16,2,12.18,3.24l2.64.8,1.6-2.25a21.43,21.43,0,0,1,9.71-7.55,24.76,24.76,0,0,1,9.29-1.73,30.4,30.4,0,0,1,13.17,3.11c3.78,1.91,8.12,4.1,12.12,6.5l.12.07c3,1.66,5.89,3.52,8.93,5.48l2.76,1.78c6.77,4.67,11.38,11.66,12.34,18.71A21.31,21.31,0,0,1,442,178.56l-1.15,2.51,2,1.89c3,2.84,6,5.84,8.89,8.91l1.89,2,2.52-1.16a21,21,0,0,1,8.85-1.94,21.7,21.7,0,0,1,3.31.25c7.12,1,14.11,5.58,18.79,12.34.61,1,1.24,1.94,1.86,2.91,1.93,3,3.75,5.81,5.39,8.79l.07.12c2.39,4,4.49,8.15,6.53,12.17,3.55,7.29,4.07,15.68,1.37,22.38a21.52,21.52,0,0,1-7.59,9.76l-2.26,1.6.81,2.64c1.21,4,2.3,8.09,3.24,12.16l.62,2.7,2.76.25a21.17,21.17,0,0,1,11.39,4.64,27.87,27.87,0,0,1,10,20.1v.14c.27,3,.33,6,.39,9.13,0,1.51.05,3,.11,4.55s-.08,3-.11,4.5c-.06,3.17-.11,6.17-.39,9.18v.14a27.84,27.84,0,0,1-10,20.08A21.18,21.18,0,0,1,500,356l-2.77.26-.61,2.7c-.94,4.09-2,8.18-3.25,12.17l-.8,2.65,2.25,1.59a21.42,21.42,0,0,1,7.56,9.72c2.71,6.73,2.19,15.12-1.38,22.46-2,4-4.13,8.16-6.5,12.12l-.07.12c-1.67,3-3.52,5.89-5.48,8.93-.59.92-1.19,1.84-1.78,2.77-4.67,6.77-11.67,11.37-18.72,12.33a21.84,21.84,0,0,1-3.37.27h0a21,21,0,0,1-8.85-1.95L453.71,441l-1.89,2c-2.86,3-5.86,6-8.92,8.9l-2,1.89,1.16,2.52a21.23,21.23,0,0,1,1.69,12.16c-1,7.12-5.57,14.11-12.34,18.79l-2.92,1.87c-3,1.93-5.8,3.75-8.77,5.39l-.12.06c-4,2.4-8.35,4.59-12.18,6.53a30.25,30.25,0,0,1-13.12,3.09,24.72,24.72,0,0,1-9.26-1.72,21.48,21.48,0,0,1-9.75-7.59l-1.6-2.26-2.65.81c-4,1.21-8.08,2.3-12.15,3.24l-2.7.62-.26,2.76a21.15,21.15,0,0,1-4.63,11.39,27.89,27.89,0,0,1-20.11,10H331c-3,.27-6,.33-9.19.39C320.35,521.87,318.86,521.9,317.36,522ZM292,506.9a17.16,17.16,0,0,0,12.13,6c2.9.28,5.85.33,8.71.38,1.46,0,2.93.06,4.39.12h.3c1.49-.07,3-.09,4.46-.12,2.83,0,5.76-.1,8.71-.38a17.16,17.16,0,0,0,12.09-6c.15-.18.32-.41.49-.65l5.42-7.29L339.82,500c-2.81.33-5.53.61-8.08.8l-.53,0a4.25,4.25,0,0,1-4.38-3.94,4.68,4.68,0,0,1,4.31-4.66c2.67-.2,5.44-.48,8.18-.82l7.77-1-5.54-5.54a15.32,15.32,0,0,0-1.49-1.36,17.47,17.47,0,0,0-10.57-3.78c-.39,0-.78,0-1.17,0-2.31.23-4.55.27-6.92.31-1.35,0-2.7,0-4,.1s-2.7-.08-4.05-.1c-2.38,0-4.62-.08-6.83-.3h-.1c-.39,0-.77,0-1.15,0a17.2,17.2,0,0,0-10.53,3.74l-.1.07c-.49.41-1,.86-1.47,1.34l-5.46,5.55,7.72,1c3.26.4,6.48.71,9.59.93a4.64,4.64,0,0,1,4.35,4.61,4.27,4.27,0,0,1-4.33,4,3.39,3.39,0,0,1-.45,0h-.11c-3.1-.21-6.31-.52-9.55-.91L286,498.93l5.4,7.28Q291.69,506.57,292,506.9Zm104.18-32.26A4.69,4.69,0,0,1,400.2,477a3.67,3.67,0,0,1,.3,2.9,5.16,5.16,0,0,1-2.63,3c-2.7,1.31-5.57,2.62-8.69,3.94l-8.35,3.54,8.53,3.59.77.31a17.83,17.83,0,0,0,13.54-.92l.45-.23c3.69-1.88,7.51-3.82,11.19-6,2.88-1.58,5.63-3.36,8.29-5.07l2.88-1.85.15-.1a18.09,18.09,0,0,0,7.46-11.19c0-.25.07-.48.1-.71l0-.22,1.48-9.37-7.57,5.71c-2.3,1.74-4.46,3.29-6.59,4.75a4.86,4.86,0,0,1-2.79.89,3.93,3.93,0,0,1-3.43-1.81,4.58,4.58,0,0,1,1.35-6.15c2.23-1.53,4.48-3.16,6.71-4.85l6.23-4.73-7.56-2a16.28,16.28,0,0,0-2-.42,18.26,18.26,0,0,0-2.71-.21,16.09,16.09,0,0,0-9.23,2.84c-.94.58-1.86,1.18-2.78,1.77-2.22,1.44-4.32,2.79-6.51,4l-.16.09c-2.82,1.7-5.72,3.18-8.8,4.75l-.87.45a16.69,16.69,0,0,0-8.24,9.13c-.2.53-.4,1.14-.59,1.84l-2,7.56,7.22-3c3.19-1.34,6.08-2.65,8.83-4A4.16,4.16,0,0,1,396.15,474.64ZM219.38,487.1c3.79,2.27,7.74,4.27,11.55,6.2l.09.05a17.88,17.88,0,0,0,7.88,1.84,17.55,17.55,0,0,0,5.59-.9c.35-.13.61-.24.87-.35l8.4-3.55-8.28-3.54c-2.67-1.14-5.09-2.24-7.39-3.34a5,5,0,0,1-2.56-2.91,3.72,3.72,0,0,1,.26-3,4.57,4.57,0,0,1,4-2.37,4.28,4.28,0,0,1,1.93.45c2.5,1.19,5,2.34,7.61,3.43l7.19,3-2-7.54a16.48,16.48,0,0,0-.62-1.94,16.68,16.68,0,0,0-8.25-9.09l-.74-.38c-3.11-1.59-6.05-3.09-8.91-4.8l-.14-.09c-2.19-1.19-4.28-2.54-6.49-4-.93-.6-1.86-1.2-2.8-1.79a16.19,16.19,0,0,0-9.25-2.83,18,18,0,0,0-4.7.62l-7.57,2,6.23,4.75c2.64,2,5.3,3.93,7.89,5.68a4.53,4.53,0,0,1,1.39,6.14,3.81,3.81,0,0,1-3.39,1.81,5.37,5.37,0,0,1-2.88-.88c-2.43-1.64-5-3.47-7.74-5.55L199.46,459l1,9c0,.29.07.58.11.86a18.16,18.16,0,0,0,7.48,11.27l.15.09L211,482C213.71,483.71,216.47,485.5,219.38,487.1ZM240.3,451c2.66,1.6,5.41,3,8.08,4.36l1,.52c5.11,2.48,9.16,7,11.79,13a30.82,30.82,0,0,1,2.43,12.65l-.07,2.92,2.8.84c3.79,1.14,7.58,2.15,11.26,3l2.83.65,1.39-2.56a31.18,31.18,0,0,1,8.48-9.78,25.28,25.28,0,0,1,15.34-5.38l1.22,0c2.23.23,4.43.26,6.56.29,1.25,0,2.49,0,3.74.1h.37c1.24-.06,2.49-.08,3.73-.1,2.13,0,4.33-.06,6.56-.29q.62,0,1.23,0a25.29,25.29,0,0,1,15.37,5.41,31,31,0,0,1,8.43,9.74l1.4,2.56,2.84-.66c3.85-.89,7.64-1.9,11.27-3l2.79-.85-.07-2.91a30.86,30.86,0,0,1,2.44-12.66c2.62-6,6.67-10.48,11.7-12.92l1.12-.57c2.66-1.35,5.41-2.75,8.07-4.36,2.13-1.16,4.14-2.46,6.09-3.72l2.66-1.7.16-.1a23.2,23.2,0,0,1,13.52-3.89,33.21,33.21,0,0,1,3.55.2,30.9,30.9,0,0,1,12.15,4.2l2.49,1.52,2.13-2c2.82-2.64,5.59-5.41,8.25-8.24l2-2.13-1.52-2.49a31,31,0,0,1-4.22-12.23c-.49-4.57-.26-11.3,3.71-17l.1-.16c.56-.89,1.13-1.77,1.7-2.66,1.26-1.95,2.56-4,3.72-6.1,1.61-2.68,3-5.43,4.38-8.1l.51-1c2.47-5.1,6.95-9.15,13-11.78a31,31,0,0,1,11.93-2.44h.72l2.92.07.84-2.8c1.14-3.79,2.15-7.58,3-11.26l.65-2.84-2.56-1.39a31.14,31.14,0,0,1-9.78-8.48,25,25,0,0,1-5.35-16.56c.22-2.23.26-4.42.29-6.55,0-1.25,0-2.49.1-3.74v-.37c-.06-1.25-.08-2.5-.1-3.75,0-2.12-.07-4.32-.29-6.54a25.34,25.34,0,0,1,5.38-16.6,30.94,30.94,0,0,1,9.73-8.44l2.55-1.39-.65-2.84c-.87-3.78-1.88-7.57-3-11.28l-.85-2.79-2.91.07h-.7a31,31,0,0,1-12-2.46c-6-2.62-10.49-6.67-12.91-11.69l-.62-1.21c-1.34-2.63-2.72-5.35-4.31-8-1.17-2.14-2.47-4.15-3.73-6.1-.57-.88-1.14-1.77-1.69-2.66l-.11-.16c-4-5.69-4.19-12.42-3.69-17.07a31,31,0,0,1,4.2-12.15l1.52-2.49-2-2.13c-2.66-2.84-5.43-5.61-8.24-8.25l-2.13-2-2.49,1.52a31.17,31.17,0,0,1-12.24,4.21,33.17,33.17,0,0,1-3.47.19,23.18,23.18,0,0,1-13.53-3.9l-.15-.1c-.88-.55-1.75-1.11-2.62-1.67-2-1.27-4-2.58-6.14-3.75-2.6-1.57-5.29-2.94-7.88-4.27l-1.22-.62c-5.12-2.47-9.17-7-11.79-13a30.56,30.56,0,0,1-2.43-12.65l.07-2.91-2.8-.85c-3.71-1.12-7.5-2.13-11.26-3l-2.84-.65-1.39,2.56a31,31,0,0,1-8.48,9.78,25.28,25.28,0,0,1-15.34,5.38l-1.22,0c-2.23-.22-4.43-.26-6.55-.29-1.25,0-2.5,0-3.75-.1h-.37c-1.25.06-2.49.08-3.74.1-2.13,0-4.32.07-6.55.29q-.62,0-1.23,0a25.29,25.29,0,0,1-15.37-5.41,31,31,0,0,1-8.43-9.73l-1.39-2.55-2.84.65c-3.79.87-7.58,1.88-11.28,3l-2.79.85.08,2.91A30.84,30.84,0,0,1,261.16,166c-2.61,6-6.66,10.49-11.69,12.92l-1.1.56c-2.66,1.36-5.42,2.76-8.08,4.37-2.14,1.16-4.16,2.46-6.11,3.72-.88.57-1.76,1.14-2.65,1.7l-.16.11a23.22,23.22,0,0,1-13.52,3.89,33.21,33.21,0,0,1-3.55-.2,31,31,0,0,1-12.15-4.2l-2.49-1.52-2.13,2c-2.88,2.69-5.65,5.47-8.25,8.24l-2,2.13,1.52,2.49A31.28,31.28,0,0,1,193,214.43c.49,4.57.26,11.3-3.71,17l-.1.16c-.56.89-1.13,1.77-1.69,2.65-1.27,1.95-2.57,4-3.73,6.11-1.61,2.67-3,5.42-4.37,8.09l-.52,1c-2.47,5.11-7,9.15-13,11.78A31.09,31.09,0,0,1,154,263.69h-.72l-2.92-.08-.84,2.8c-1.13,3.72-2.13,7.51-3,11.26l-.65,2.84,2.56,1.39a31.18,31.18,0,0,1,9.78,8.48,25.32,25.32,0,0,1,5.35,16.56c-.23,2.22-.27,4.41-.3,6.52,0,1.31,0,2.54-.1,3.77v.38c.06,1.24.08,2.48.1,3.79,0,2.11.07,4.29.3,6.5a25.34,25.34,0,0,1-5.38,16.6,31.16,31.16,0,0,1-9.73,8.44l-2.56,1.39.66,2.84c.89,3.86,1.9,7.65,3,11.27l.85,2.79,2.91-.07H154A30.93,30.93,0,0,1,166,373.6c6,2.61,10.48,6.66,12.92,11.69l.59,1.17c1.35,2.64,2.74,5.37,4.34,8,1.16,2.13,2.46,4.14,3.72,6.08.57.89,1.14,1.78,1.7,2.67l.1.16c3.13,4.5,4.41,10.41,3.7,17.08a31.13,31.13,0,0,1-4.2,12.15l-1.52,2.49,2,2.13c2.69,2.87,5.46,5.64,8.24,8.24l2.13,2,2.49-1.52a31.24,31.24,0,0,1,12.23-4.22,33.56,33.56,0,0,1,3.49-.18,23.08,23.08,0,0,1,13.5,3.89l.17.1,2.64,1.69C236.14,448.51,238.15,449.81,240.3,451Zm-92.63-35.6c1.59,2.9,3.38,5.67,5.11,8.35.61.94,1.22,1.88,1.81,2.83l.1.14a18,18,0,0,0,11.19,7.46l.75.11,9.46,1.37-5.63-7.44c-1.67-2.22-3.27-4.44-4.75-6.59a4.78,4.78,0,0,1-.79-3.72,3.8,3.8,0,0,1,1.72-2.5,4.46,4.46,0,0,1,2.33-.66,4.6,4.6,0,0,1,3.81,2c1.59,2.31,3.23,4.56,4.86,6.71l4.73,6.22,2-7.55a18.84,18.84,0,0,0,.42-2,16.44,16.44,0,0,0-2.62-11.95l-1.78-2.78c-1.44-2.22-2.79-4.32-4-6.51l-.08-.15c-1.69-2.81-3.17-5.72-4.73-8.79l-.46-.89a16.68,16.68,0,0,0-9.14-8.24,18.28,18.28,0,0,0-1.83-.58l-7.58-2,3.05,7.23c1.35,3.19,2.65,6.07,4,8.82a4.6,4.6,0,0,1-1.86,6,3.59,3.59,0,0,1-1.78.47,4.76,4.76,0,0,1-4.11-2.8c-1.3-2.67-2.64-5.61-3.94-8.68l-3.55-8.35-3.59,8.53c-.11.26-.22.53-.32.8a17.77,17.77,0,0,0,.93,13.5l.25.49C143.54,407.91,145.48,411.72,147.67,415.38Zm318.85-1.85a4.53,4.53,0,0,1,2.36.65,3.67,3.67,0,0,1,1.69,2.37,5.1,5.1,0,0,1-.77,3.91c-1.63,2.42-3.46,5-5.54,7.73l-5.37,7.12,9-1c.28,0,.55-.06.83-.11l.1,0A18,18,0,0,0,480,426.7l.09-.14c.61-1,1.22-1.9,1.83-2.85,1.72-2.67,3.51-5.43,5.1-8.32,2.27-3.8,4.27-7.75,6.21-11.57a17.83,17.83,0,0,0,1-13.54c-.1-.29-.19-.49-.27-.69l-.09-.21-3.43-8.73-3.66,8.63c-1.11,2.62-2.2,5-3.33,7.38a4.78,4.78,0,0,1-4.12,2.75,3.63,3.63,0,0,1-1.74-.44,4.57,4.57,0,0,1-1.93-6q1.8-3.74,3.44-7.61l3-7.19-7.54,2a17.11,17.11,0,0,0-11,8.86l-.4.8c-1.58,3.09-3.07,6-4.78,8.85l-.08.15c-1.19,2.18-2.54,4.27-4,6.48-.61.93-1.21,1.87-1.8,2.81a16.48,16.48,0,0,0-2.62,12,15.8,15.8,0,0,0,.41,2l2,7.59,4.75-6.25c2.09-2.75,3.95-5.33,5.68-7.88A4.43,4.43,0,0,1,466.52,413.53Zm30.36-88.08a4,4,0,0,1,2.86,1.37,4.42,4.42,0,0,1,1.11,3.42v.1c-.21,3.09-.52,6.31-.91,9.55l-1.11,9.2,7.28-5.73.18-.13c.18-.13.36-.27.53-.42a17.15,17.15,0,0,0,6-12.15c.28-2.89.33-5.85.38-8.72,0-1.46,0-2.92.11-4.38v-.3c-.06-1.45-.08-2.91-.11-4.36-.05-2.87-.1-5.83-.39-8.81a17.11,17.11,0,0,0-6-12.08c-.19-.16-.44-.34-.68-.53l-7.26-5.37,1.07,8.83c.34,2.89.61,5.54.8,8.07a4.65,4.65,0,0,1-1.11,3.59,3.85,3.85,0,0,1-2.8,1.33h-.11a4.7,4.7,0,0,1-4.55-4.31c-.19-2.57-.47-5.26-.82-8.17l-.95-7.74-5.55,5.48a19.71,19.71,0,0,0-1.39,1.53,17.2,17.2,0,0,0-3.72,11.72c.23,2.32.27,4.56.31,6.93,0,1.35,0,2.7.1,4.05s-.08,2.7-.1,4.05c0,2.37-.08,4.61-.3,6.83v.1a17.24,17.24,0,0,0,3.69,11.68,16.88,16.88,0,0,0,1.43,1.56l5.54,5.46.95-7.72c.4-3.25.71-6.48.93-9.58a4.65,4.65,0,0,1,4.53-4.35ZM128.47,291.57c-.21.15-.41.31-.61.48a17.13,17.13,0,0,0-6,12.12c-.28,2.9-.33,5.86-.38,8.72,0,1.46-.06,2.92-.11,4.38v.3c.06,1.49.08,3,.11,4.45,0,2.84.1,5.77.38,8.72a17.13,17.13,0,0,0,6,12.09c.16.14.39.31.62.49l7.33,5.5-1.09-8.93c-.33-2.7-.6-5.41-.8-8.07a4.66,4.66,0,0,1,1.1-3.58,3.89,3.89,0,0,1,2.81-1.33h.1a4.7,4.7,0,0,1,4.56,4.31c.2,2.68.48,5.45.82,8.17l1,7.72,5.53-5.47a16.53,16.53,0,0,0,1.37-1.5A17.2,17.2,0,0,0,155,328.4c-.23-2.3-.27-4.53-.31-6.89,0-1.36,0-2.73-.1-4.09s.08-2.72.1-4.09c0-2.35.08-4.58.3-6.79v-.1a16.93,16.93,0,0,0-5.11-13.24l-5.53-5.47-1,7.72c-.4,3.22-.72,6.45-.94,9.59a4.64,4.64,0,0,1-4.54,4.35A4,4,0,0,1,135,308a4.42,4.42,0,0,1-1.11-3.42v-.1c.21-3.09.52-6.31.91-9.55l1.1-9.07Zm26.91-56.15a3.53,3.53,0,0,1,1.74.45,4.56,4.56,0,0,1,1.93,5.94q-1.85,3.84-3.44,7.62l-3.05,7.24,7.59-2.05c.73-.2,1.32-.39,1.88-.6a16.69,16.69,0,0,0,9.13-8.27l.5-1c1.55-3,3-5.89,4.68-8.67l.09-.15c1.2-2.21,2.56-4.31,4-6.55.59-.91,1.18-1.82,1.75-2.74a16.48,16.48,0,0,0,2.62-12,17.27,17.27,0,0,0-.4-1.94l-2-7.56-4.74,6.22c-2.08,2.74-3.94,5.32-5.67,7.89a4.45,4.45,0,0,1-3.79,2,4.62,4.62,0,0,1-2.35-.65,3.69,3.69,0,0,1-1.7-2.39,5.1,5.1,0,0,1,.77-3.89c1.67-2.48,3.49-5,5.54-7.73l5.4-7.14-9.05,1-.83.11a18.1,18.1,0,0,0-11.27,7.48l-.1.15c-.6.94-1.2,1.88-1.81,2.82-1.73,2.68-3.52,5.45-5.11,8.35-2.26,3.78-4.26,7.72-6.19,11.53l-.06.11a17.77,17.77,0,0,0-.94,13.46c.09.27.2.53.3.78l3.54,8.66,3.6-8.44c1.16-2.7,2.25-5.12,3.34-7.38A4.78,4.78,0,0,1,155.38,235.42Zm297.13-8.76,1.77,2.77c1.44,2.22,2.8,4.33,4,6.53l.08.15c1.66,2.75,3.11,5.58,4.64,8.58l.56,1.1a16.71,16.71,0,0,0,9.13,8.23,17.65,17.65,0,0,0,1.85.59l7.54,2-3-7.2c-1.29-3.06-2.64-6-4-8.83a4.59,4.59,0,0,1,1.86-6,3.59,3.59,0,0,1,1.78-.47,4.78,4.78,0,0,1,4.11,2.8c1.31,2.68,2.61,5.54,3.95,8.68l3.55,8.36,3.58-8.53.29-.71.05-.14a17.87,17.87,0,0,0-1-13.46l-.22-.42c-1.88-3.71-3.82-7.54-6-11.22-1.61-2.92-3.41-5.71-5.15-8.4l-1.78-2.78-.09-.14a18,18,0,0,0-11.19-7.46c-.31-.06-.6-.09-.89-.13l-9.14-1.11,5.43,7.2c1.76,2.33,3.31,4.48,4.76,6.59a4.78,4.78,0,0,1,.79,3.72,3.79,3.79,0,0,1-1.71,2.5,4.43,4.43,0,0,1-2.34.66,4.63,4.63,0,0,1-3.81-2c-1.59-2.31-3.22-4.57-4.86-6.72l-4.8-6.31-2,7.69c-.18.69-.3,1.31-.4,1.91A16.53,16.53,0,0,0,452.51,226.66ZM216,164.9a3.92,3.92,0,0,1,3.43,1.81,4.59,4.59,0,0,1-1.35,6.15c-2.26,1.55-4.51,3.19-6.71,4.85l-6.23,4.74,7.56,2c.68.17,1.33.31,2,.41a17.86,17.86,0,0,0,2.74.21,16.15,16.15,0,0,0,9.25-2.84l2.8-1.79c2.21-1.43,4.3-2.78,6.48-4l.15-.09c2.75-1.66,5.59-3.11,8.59-4.64l1.1-.56a16.71,16.71,0,0,0,8.23-9.13c.21-.56.4-1.16.58-1.83l2-7.56-7.22,3c-3.08,1.29-6,2.64-8.83,4a4.16,4.16,0,0,1-2,.49,4.69,4.69,0,0,1-4.05-2.35,3.67,3.67,0,0,1-.3-2.9,5.11,5.11,0,0,1,2.63-3c2.68-1.31,5.54-2.61,8.68-4l8.38-3.55-8.55-3.57c-.27-.12-.54-.23-.82-.33a17.38,17.38,0,0,0-5.6-.91,17.93,17.93,0,0,0-7.9,1.84l-.18.1c-3.78,1.91-7.69,3.9-11.45,6.15-2.92,1.6-5.7,3.4-8.39,5.14-.93.6-1.85,1.2-2.79,1.78l-.13.1A18,18,0,0,0,200.61,166c-.06.31-.09.58-.12.85L199.32,176l7.25-5.47c2.24-1.69,4.46-3.29,6.59-4.75A4.86,4.86,0,0,1,216,164.9Zm192.14,17.35a16.15,16.15,0,0,0,9.25,2.84,18.47,18.47,0,0,0,2.77-.22,16.68,16.68,0,0,0,1.94-.41l7.59-2-6.25-4.75c-2.75-2.09-5.33-4-7.89-5.68a4.52,4.52,0,0,1-1.39-6.13,3.8,3.8,0,0,1,3.4-1.81,5.28,5.28,0,0,1,2.87.88c2.47,1.67,5.1,3.55,7.74,5.54l7.3,5.51-1.22-9.26c0-.26-.06-.52-.11-.78a18.07,18.07,0,0,0-7.46-11.22l-.15-.09-2.83-1.82c-2.68-1.73-5.44-3.51-8.33-5.11-3.79-2.26-7.73-4.26-11.54-6.19l-.11-.06a17.8,17.8,0,0,0-13.47-.94c-.26.09-.49.19-.72.29l-.19.08-8.65,3.44,8.57,3.64c2.65,1.13,5.07,2.22,7.38,3.33a5,5,0,0,1,2.56,2.92,3.7,3.7,0,0,1-.26,2.94,4.56,4.56,0,0,1-4,2.38,4.41,4.41,0,0,1-1.93-.45q-3.76-1.81-7.61-3.44l-7.25-3.05,2.06,7.59a17.25,17.25,0,0,0,8.86,11l.79.41c3.1,1.57,6,3.06,8.86,4.77l.15.08c2.21,1.21,4.32,2.57,6.56,4C406.28,181.09,407.18,181.68,408.09,182.25ZM303.47,134a4.25,4.25,0,0,1,4.39,3.94,4.67,4.67,0,0,1-4.31,4.65c-2.66.21-5.44.49-8.17.83l-7.78,1,5.54,5.54a17.17,17.17,0,0,0,1.49,1.35,17.5,17.5,0,0,0,10.58,3.78c.39,0,.77,0,1.16,0,2.31-.23,4.56-.27,6.93-.31,1.35,0,2.7,0,4.05-.1s2.7.08,4,.1c2.37,0,4.62.08,6.83.3.48,0,.87.05,1.25.05a17,17,0,0,0,12.09-5.15L347,144.4l-7.71-1c-3.31-.42-6.54-.73-9.6-.94a4.67,4.67,0,0,1-4.34-4.6,4.27,4.27,0,0,1,4.34-4l.45,0h.1c3.09.21,6.3.52,9.55.91l9.05,1.1-5.67-7.39c-.15-.2-.3-.4-.46-.59a17.09,17.09,0,0,0-12.15-6c-2.91-.28-5.89-.33-8.77-.38-1.44,0-2.89,0-4.33-.11h-.29c-1.44.06-2.88.08-4.32.11-2.88,0-5.86.1-8.86.39a17.08,17.08,0,0,0-12.08,6c-.14.16-.32.39-.49.62L286,135.94l8.92-1.09c2.86-.35,5.5-.61,8.07-.81A5.07,5.07,0,0,1,303.47,134Z"/><path class="cls-1" d="M317.35,634.7A317.35,317.35,0,0,1,93,93a317.35,317.35,0,1,1,448.8,448.8A315.27,315.27,0,0,1,317.35,634.7Zm0-627.7A310.35,310.35,0,0,0,97.9,536.8,310.35,310.35,0,1,0,536.8,97.9,308.31,308.31,0,0,0,317.35,7Z"/><rect class="cls-1" x="3.5" y="313.85" width="109.44" height="7"/><rect class="cls-1" x="521.89" y="313.92" width="109.31" height="7"/><circle class="cls-1" cx="53.77" cy="364.04" r="8.34"/><circle class="cls-1" cx="576.54" cy="364.04" r="8.34"/><path class="cls-1" d="M317.35,440.89A123.54,123.54,0,1,1,440.89,317.35,123.68,123.68,0,0,1,317.35,440.89Zm0-240.71A117.17,117.17,0,1,0,434.52,317.35,117.3,117.3,0,0,0,317.35,200.18Z"/><path class="cls-1" d="M366.65,360.54H204.71v-2.12l-3-3.49L285,284.47ZM212.5,354.18h138L284.81,293Z"/><path class="cls-1" d="M430,360.54H357.31l-22.74-21.18,44-30.65,52.58,46.41Zm-70.23-6.36h60.62l-42.36-37.39-33.39,23.28Z"/><path class="cls-1" d="M357.27,326a41,41,0,0,0-61.33-25.79l-3.34-5.42a47.32,47.32,0,0,1,70.87,29.8Z"/><rect class="cls-1" x="314.17" y="196.99" width="6.37" height="93.95"/><rect class="cls-1" x="328.75" y="263" width="89.03" height="6.37" transform="translate(-78.9 341.9) rotate(-45)"/><rect class="cls-1" x="259.61" y="221.67" width="6.37" height="89.03" transform="translate(-111.25 263.79) rotate(-45)"/><rect class="cls-1" x="380.47" y="305.2" width="57.05" height="6.37" transform="translate(-63.66 110.96) rotate(-14.35)"/><rect class="cls-1" x="221.45" y="279.86" width="6.37" height="57.05" transform="translate(-129.8 449.59) rotate(-75.65)"/><path class="cls-1" d="M298.22,404.8c-2-1.88-2.93-4.51-2.93-7.89,0-3.56.94-6.29,2.84-8.19s4.72-2.85,8.45-2.85a19.34,19.34,0,0,1,3.36.28,21.19,21.19,0,0,1,3,.8v4.62a15.47,15.47,0,0,0-6-1.18,6.44,6.44,0,0,0-4.79,1.57c-1,1.05-1.52,2.7-1.52,5a6.25,6.25,0,0,0,1.58,4.7,6.73,6.73,0,0,0,4.8,1.52,15.4,15.4,0,0,0,6-1.15v4.65a19.56,19.56,0,0,1-6.39,1C303,407.61,300.17,406.68,298.22,404.8Z"/><path class="cls-1" d="M321.12,405c-1.77-1.77-2.65-4.47-2.65-8.12q0-5.73,2.62-8.35c1.74-1.74,4.37-2.62,7.89-2.62s6.11.88,7.87,2.62,2.64,4.53,2.64,8.35c0,3.65-.89,6.35-2.66,8.12s-4.38,2.65-7.85,2.65S322.89,406.73,321.12,405Zm11.74-3.35a7.64,7.64,0,0,0,1.22-4.77q0-3.49-1.21-5a4.74,4.74,0,0,0-3.89-1.47,4.79,4.79,0,0,0-3.93,1.47q-1.21,1.49-1.21,5a7.64,7.64,0,0,0,1.22,4.77,5.76,5.76,0,0,0,7.8,0Z"/><rect class="cls-1" x="370.37" y="372.71" width="4.55" height="52.22"/><path class="cls-1" d="M383.1,388.14c-4.41-.79-12.75-5.55-12.71-17.93l4.55,0c0,11.57,8.61,13.37,9,13.44Z"/><path class="cls-1" d="M383.1,398.32c-4.41-.79-12.75-5.55-12.71-17.93h4.55c0,11.57,8.61,13.38,9,13.45Z"/><path class="cls-1" d="M383.1,409.44c-4.41-.78-12.75-5.55-12.71-17.93l4.55,0c0,11.57,8.61,13.37,9,13.44Z"/><path class="cls-1" d="M362.09,388.22l-.82-4.47c.37-.07,9-1.88,9-13.44l4.55,0C374.83,382.67,366.5,387.43,362.09,388.22Z"/><path class="cls-1" d="M362.09,398.4l-.82-4.47c.37-.07,9-1.88,9-13.45h4.55C374.83,392.85,366.5,397.61,362.09,398.4Z"/><path class="cls-1" d="M362.09,409.52l-.82-4.47c.37-.07,9-1.87,9-13.44l4.55,0C374.83,404,366.5,408.74,362.09,409.52Z"/><rect class="cls-1" x="259.81" y="372.71" width="4.55" height="52.22"/><path class="cls-1" d="M272.54,388.14c-4.41-.79-12.75-5.55-12.7-17.93l4.54,0c0,11.57,8.61,13.37,9,13.44Z"/><path class="cls-1" d="M272.54,398.32c-4.41-.79-12.75-5.55-12.7-17.93h4.54c0,11.57,8.61,13.38,9,13.45Z"/><path class="cls-1" d="M272.54,409.44c-4.41-.78-12.75-5.55-12.7-17.93l4.54,0c0,11.57,8.61,13.37,9,13.44Z"/><path class="cls-1" d="M251.53,388.22l-.81-4.47c.36-.07,9-1.88,9-13.44l4.54,0C264.28,382.67,255.94,387.43,251.53,388.22Z"/><path class="cls-1" d="M251.53,398.4l-.81-4.47c.36-.07,9-1.88,9-13.45h4.54C264.28,392.85,255.94,397.61,251.53,398.4Z"/><path class="cls-1" d="M251.53,409.52l-.81-4.47c.36-.07,9-1.87,9-13.44l4.54,0C264.28,404,255.94,408.74,251.53,409.52Z"/></g></g></svg>